<mxfile host="65bd71144e">
    <diagram id="tdJxCFAHOVFyjBT44j-q" name="Page-1">
        <mxGraphModel dx="740" dy="389" grid="1" gridSize="10" guides="1" tooltips="1" connect="1" arrows="1" fold="1" page="1" pageScale="1" pageWidth="850" pageHeight="1100" math="0" shadow="0">
            <root>
                <mxCell id="0"/>
                <mxCell id="1" parent="0"/>
                <mxCell id="23" style="edgeStyle=none;html=1;exitX=1;exitY=0.25;exitDx=0;exitDy=0;entryX=0;entryY=0.25;entryDx=0;entryDy=0;" parent="1" source="2" target="18" edge="1">
                    <mxGeometry relative="1" as="geometry"/>
                </mxCell>
                <mxCell id="2" value="" style="whiteSpace=wrap;html=1;" parent="1" vertex="1">
                    <mxGeometry x="50" y="40" width="50" height="160" as="geometry"/>
                </mxCell>
                <mxCell id="3" value="Customer" style="text;strokeColor=none;align=center;fillColor=none;html=1;verticalAlign=middle;whiteSpace=wrap;rounded=0;" parent="1" vertex="1">
                    <mxGeometry x="45" y="19" width="60" height="30" as="geometry"/>
                </mxCell>
                <mxCell id="18" value="" style="whiteSpace=wrap;html=1;" parent="1" vertex="1">
                    <mxGeometry x="220" y="40" width="50" height="160" as="geometry"/>
                </mxCell>
                <mxCell id="19" value="" style="whiteSpace=wrap;html=1;" parent="1" vertex="1">
                    <mxGeometry x="400" y="40" width="50" height="160" as="geometry"/>
                </mxCell>
                <mxCell id="20" value="Bank" style="text;strokeColor=none;align=center;fillColor=none;html=1;verticalAlign=middle;whiteSpace=wrap;rounded=0;" parent="1" vertex="1">
                    <mxGeometry x="210" y="19" width="60" height="20" as="geometry"/>
                </mxCell>
                <mxCell id="21" value="Database" style="text;strokeColor=none;align=center;fillColor=none;html=1;verticalAlign=middle;whiteSpace=wrap;rounded=0;" parent="1" vertex="1">
                    <mxGeometry x="390" y="11.5" width="80" height="35" as="geometry"/>
                </mxCell>
                <mxCell id="24" style="edgeStyle=none;html=1;exitX=1;exitY=0.25;exitDx=0;exitDy=0;entryX=0;entryY=0.25;entryDx=0;entryDy=0;" parent="1" edge="1">
                    <mxGeometry relative="1" as="geometry">
                        <mxPoint x="276" y="95" as="sourcePoint"/>
                        <mxPoint x="396" y="95" as="targetPoint"/>
                    </mxGeometry>
                </mxCell>
                <mxCell id="26" value="application to open account" style="text;strokeColor=none;align=center;fillColor=none;html=1;verticalAlign=middle;whiteSpace=wrap;rounded=0;" parent="1" vertex="1">
                    <mxGeometry x="110" y="49" width="90" height="30" as="geometry"/>
                </mxCell>
                <mxCell id="27" value="save reco0rd to open account" style="text;strokeColor=none;align=center;fillColor=none;html=1;verticalAlign=middle;whiteSpace=wrap;rounded=0;" parent="1" vertex="1">
                    <mxGeometry x="300" y="50" width="60" height="30" as="geometry"/>
                </mxCell>
                <mxCell id="30" value="" style="html=1;shadow=0;dashed=0;align=center;verticalAlign=middle;shape=mxgraph.arrows2.bendArrow;dy=15;dx=38;notch=0;arrowHead=55;rounded=1;direction=west;" parent="1" vertex="1">
                    <mxGeometry x="450" y="125" width="130" height="50" as="geometry"/>
                </mxCell>
                <mxCell id="31" value="valid document upload/Required document" style="text;strokeColor=none;align=center;fillColor=none;html=1;verticalAlign=middle;whiteSpace=wrap;rounded=0;" parent="1" vertex="1">
                    <mxGeometry x="490" y="50" width="60" height="30" as="geometry"/>
                </mxCell>
                <mxCell id="38" value="create account" style="text;html=1;align=center;verticalAlign=middle;resizable=0;points=[];autosize=1;strokeColor=none;fillColor=none;" parent="1" vertex="1">
                    <mxGeometry x="280" y="135" width="100" height="30" as="geometry"/>
                </mxCell>
                <mxCell id="39" value="" style="endArrow=none;dashed=1;html=1;" parent="1" edge="1">
                    <mxGeometry width="50" height="50" relative="1" as="geometry">
                        <mxPoint x="280" y="176" as="sourcePoint"/>
                        <mxPoint x="390" y="176" as="targetPoint"/>
                        <Array as="points"/>
                    </mxGeometry>
                </mxCell>
                <mxCell id="40" value="" style="endArrow=none;dashed=1;html=1;entryX=-0.1;entryY=0.618;entryDx=0;entryDy=0;entryPerimeter=0;" parent="1" edge="1">
                    <mxGeometry width="50" height="50" relative="1" as="geometry">
                        <mxPoint x="100" y="175.04" as="sourcePoint"/>
                        <mxPoint x="215" y="175.00000000000003" as="targetPoint"/>
                        <Array as="points"/>
                    </mxGeometry>
                </mxCell>
                <mxCell id="41" value="open account" style="text;strokeColor=none;align=center;fillColor=none;html=1;verticalAlign=middle;whiteSpace=wrap;rounded=0;" parent="1" vertex="1">
                    <mxGeometry x="120" y="135" width="60" height="30" as="geometry"/>
                </mxCell>
                <mxCell id="42" value="" style="whiteSpace=wrap;html=1;" parent="1" vertex="1">
                    <mxGeometry x="40" y="320" width="50" height="220" as="geometry"/>
                </mxCell>
                <mxCell id="43" value="Deposit" style="text;strokeColor=none;align=center;fillColor=none;html=1;verticalAlign=middle;whiteSpace=wrap;rounded=0;" parent="1" vertex="1">
                    <mxGeometry x="40" y="240" width="60" height="30" as="geometry"/>
                </mxCell>
                <mxCell id="44" value="Customer" style="text;strokeColor=none;align=center;fillColor=none;html=1;verticalAlign=middle;whiteSpace=wrap;rounded=0;" parent="1" vertex="1">
                    <mxGeometry x="45" y="280" width="60" height="30" as="geometry"/>
                </mxCell>
                <mxCell id="45" value="" style="whiteSpace=wrap;html=1;" parent="1" vertex="1">
                    <mxGeometry x="230" y="320" width="50" height="220" as="geometry"/>
                </mxCell>
                <mxCell id="46" value="" style="whiteSpace=wrap;html=1;" parent="1" vertex="1">
                    <mxGeometry x="405" y="320" width="50" height="220" as="geometry"/>
                </mxCell>
                <mxCell id="47" value="&lt;span style=&quot;color: rgba(0, 0, 0, 0); font-family: monospace; font-size: 0px; text-align: start;&quot;&gt;%3CmxGraphModel%3E%3Croot%3E%3CmxCell%20id%3D%220%22%2F%3E%3CmxCell%20id%3D%221%22%20parent%3D%220%22%2F%3E%3CmxCell%20id%3D%222%22%20value%3D%22Bank%22%20style%3D%22text%3BstrokeColor%3Dnone%3Balign%3Dcenter%3BfillColor%3Dnone%3Bhtml%3D1%3BverticalAlign%3Dmiddle%3BwhiteSpace%3Dwrap%3Brounded%3D0%3B%22%20vertex%3D%221%22%20parent%3D%221%22%3E%3CmxGeometry%20x%3D%22210%22%20y%3D%2210%22%20width%3D%2260%22%20height%3D%2220%22%20as%3D%22geometry%22%2F%3E%3C%2FmxCell%3E%3C%2Froot%3E%3C%2FmxGraphModel%3E&lt;/span&gt;&lt;span style=&quot;color: rgba(0, 0, 0, 0); font-family: monospace; font-size: 0px; text-align: start;&quot;&gt;%3CmxGraphModel%3E%3Croot%3E%3CmxCell%20id%3D%220%22%2F%3E%3CmxCell%20id%3D%221%22%20parent%3D%220%22%2F%3E%3CmxCell%20id%3D%222%22%20value%3D%22Bank%22%20style%3D%22text%3BstrokeColor%3Dnone%3Balign%3Dcenter%3BfillColor%3Dnone%3Bhtml%3D1%3BverticalAlign%3Dmiddle%3BwhiteSpace%3Dwrap%3Brounded%3D0%3B%22%20vertex%3D%221%22%20parent%3D%221%22%3E%3CmxGeometry%20x%3D%22210%22%20y%3D%2210%22%20width%3D%2260%22%20height%3D%2220%22%20as%3D%22geometry%22%2F%3E%3C%2FmxCell%3E%3C%2Froot%3E%3C%2FmxGraphModel%3E&lt;/span&gt;" style="text;strokeColor=none;align=center;fillColor=none;html=1;verticalAlign=middle;whiteSpace=wrap;rounded=0;" parent="1" vertex="1">
                    <mxGeometry x="510" y="180" width="60" height="30" as="geometry"/>
                </mxCell>
                <mxCell id="48" value="Bank" style="text;strokeColor=none;align=center;fillColor=none;html=1;verticalAlign=middle;whiteSpace=wrap;rounded=0;" parent="1" vertex="1">
                    <mxGeometry x="220" y="285" width="60" height="20" as="geometry"/>
                </mxCell>
                <mxCell id="49" value="&lt;span style=&quot;color: rgba(0, 0, 0, 0); font-family: monospace; font-size: 0px; text-align: start;&quot;&gt;%3CmxGraphModel%3E%3Croot%3E%3CmxCell%20id%3D%220%22%2F%3E%3CmxCell%20id%3D%221%22%20parent%3D%220%22%2F%3E%3CmxCell%20id%3D%222%22%20value%3D%22Database%22%20style%3D%22text%3BstrokeColor%3Dnone%3Balign%3Dcenter%3BfillColor%3Dnone%3Bhtml%3D1%3BverticalAlign%3Dmiddle%3BwhiteSpace%3Dwrap%3Brounded%3D0%3B%22%20vertex%3D%221%22%20parent%3D%221%22%3E%3CmxGeometry%20x%3D%22390%22%20width%3D%2280%22%20height%3D%2235%22%20as%3D%22geometry%22%2F%3E%3C%2FmxCell%3E%3C%2Froot%3E%3C%2FmxGraphModel%3E&lt;/span&gt;" style="text;strokeColor=none;align=center;fillColor=none;html=1;verticalAlign=middle;whiteSpace=wrap;rounded=0;" parent="1" vertex="1">
                    <mxGeometry x="510" y="180" width="60" height="30" as="geometry"/>
                </mxCell>
                <mxCell id="50" value="Database" style="text;strokeColor=none;align=center;fillColor=none;html=1;verticalAlign=middle;whiteSpace=wrap;rounded=0;" parent="1" vertex="1">
                    <mxGeometry x="390" y="280" width="80" height="35" as="geometry"/>
                </mxCell>
                <mxCell id="51" value="" style="endArrow=classic;html=1;" parent="1" edge="1">
                    <mxGeometry width="50" height="50" relative="1" as="geometry">
                        <mxPoint x="90" y="350" as="sourcePoint"/>
                        <mxPoint x="220" y="350" as="targetPoint"/>
                        <Array as="points">
                            <mxPoint x="160" y="350"/>
                        </Array>
                    </mxGeometry>
                </mxCell>
                <mxCell id="52" value="" style="endArrow=classic;html=1;" parent="1" edge="1">
                    <mxGeometry width="50" height="50" relative="1" as="geometry">
                        <mxPoint x="90" y="380" as="sourcePoint"/>
                        <mxPoint x="220" y="380" as="targetPoint"/>
                    </mxGeometry>
                </mxCell>
                <mxCell id="53" value="" style="endArrow=classic;html=1;" parent="1" edge="1">
                    <mxGeometry width="50" height="50" relative="1" as="geometry">
                        <mxPoint x="90" y="410" as="sourcePoint"/>
                        <mxPoint x="220" y="410" as="targetPoint"/>
                        <Array as="points">
                            <mxPoint x="90" y="410"/>
                        </Array>
                    </mxGeometry>
                </mxCell>
                <mxCell id="54" value="login" style="text;strokeColor=none;align=center;fillColor=none;html=1;verticalAlign=middle;whiteSpace=wrap;rounded=0;" parent="1" vertex="1">
                    <mxGeometry x="120" y="320" width="60" height="30" as="geometry"/>
                </mxCell>
                <mxCell id="55" value="password" style="text;strokeColor=none;align=center;fillColor=none;html=1;verticalAlign=middle;whiteSpace=wrap;rounded=0;" parent="1" vertex="1">
                    <mxGeometry x="125" y="350" width="60" height="30" as="geometry"/>
                </mxCell>
                <mxCell id="56" value="submit" style="text;strokeColor=none;align=center;fillColor=none;html=1;verticalAlign=middle;whiteSpace=wrap;rounded=0;" parent="1" vertex="1">
                    <mxGeometry x="125" y="380" width="60" height="30" as="geometry"/>
                </mxCell>
                <mxCell id="57" value="" style="endArrow=classic;html=1;" parent="1" edge="1">
                    <mxGeometry width="50" height="50" relative="1" as="geometry">
                        <mxPoint x="280" y="410" as="sourcePoint"/>
                        <mxPoint x="400" y="410" as="targetPoint"/>
                        <Array as="points"/>
                    </mxGeometry>
                </mxCell>
                <mxCell id="58" value="verify" style="text;strokeColor=none;align=center;fillColor=none;html=1;verticalAlign=middle;whiteSpace=wrap;rounded=0;" parent="1" vertex="1">
                    <mxGeometry x="320" y="380" width="60" height="30" as="geometry"/>
                </mxCell>
                <mxCell id="59" value="" style="html=1;shadow=0;dashed=0;align=center;verticalAlign=middle;shape=mxgraph.arrows2.bendArrow;dy=15;dx=38;notch=0;arrowHead=55;rounded=1;direction=west;" parent="1" vertex="1">
                    <mxGeometry x="470" y="400" width="130" height="50" as="geometry"/>
                </mxCell>
                <mxCell id="60" value="" style="endArrow=none;dashed=1;html=1;" parent="1" edge="1">
                    <mxGeometry width="50" height="50" relative="1" as="geometry">
                        <mxPoint x="290" y="440" as="sourcePoint"/>
                        <mxPoint x="400" y="440" as="targetPoint"/>
                        <Array as="points">
                            <mxPoint x="330" y="440"/>
                        </Array>
                    </mxGeometry>
                </mxCell>
                <mxCell id="61" value="valid accoutn" style="text;strokeColor=none;align=center;fillColor=none;html=1;verticalAlign=middle;whiteSpace=wrap;rounded=0;" parent="1" vertex="1">
                    <mxGeometry x="320" y="410" width="60" height="30" as="geometry"/>
                </mxCell>
                <mxCell id="62" value="invalid accoutn" style="text;strokeColor=none;align=center;fillColor=none;html=1;verticalAlign=middle;whiteSpace=wrap;rounded=0;" parent="1" vertex="1">
                    <mxGeometry x="320" y="440" width="60" height="30" as="geometry"/>
                </mxCell>
                <mxCell id="63" value="" style="endArrow=none;dashed=1;html=1;" parent="1" edge="1">
                    <mxGeometry width="50" height="50" relative="1" as="geometry">
                        <mxPoint x="91" y="440" as="sourcePoint"/>
                        <mxPoint x="221" y="440" as="targetPoint"/>
                        <Array as="points">
                            <mxPoint x="131" y="440"/>
                        </Array>
                    </mxGeometry>
                </mxCell>
                <mxCell id="64" value="perform othe features" style="text;strokeColor=none;align=center;fillColor=none;html=1;verticalAlign=middle;whiteSpace=wrap;rounded=0;" parent="1" vertex="1">
                    <mxGeometry x="100" y="421" width="90" as="geometry"/>
                </mxCell>
                <mxCell id="66" value="enter valid details" style="text;strokeColor=none;align=center;fillColor=none;html=1;verticalAlign=middle;whiteSpace=wrap;rounded=0;" parent="1" vertex="1">
                    <mxGeometry x="125" y="440" width="60" height="30" as="geometry"/>
                </mxCell>
                <mxCell id="67" value="deposri" style="text;strokeColor=none;align=center;fillColor=none;html=1;verticalAlign=middle;whiteSpace=wrap;rounded=0;" parent="1" vertex="1">
                    <mxGeometry x="125" y="480" width="60" height="30" as="geometry"/>
                </mxCell>
                <mxCell id="68" value="" style="endArrow=classic;html=1;" parent="1" edge="1">
                    <mxGeometry width="50" height="50" relative="1" as="geometry">
                        <mxPoint x="90" y="480" as="sourcePoint"/>
                        <mxPoint x="220" y="480" as="targetPoint"/>
                        <Array as="points">
                            <mxPoint x="90" y="480"/>
                            <mxPoint x="150" y="480"/>
                        </Array>
                    </mxGeometry>
                </mxCell>
                <mxCell id="69" value="" style="endArrow=classic;html=1;" parent="1" edge="1">
                    <mxGeometry width="50" height="50" relative="1" as="geometry">
                        <mxPoint x="280" y="480" as="sourcePoint"/>
                        <mxPoint x="410" y="480" as="targetPoint"/>
                        <Array as="points">
                            <mxPoint x="280" y="480"/>
                            <mxPoint x="340" y="480"/>
                        </Array>
                    </mxGeometry>
                </mxCell>
                <mxCell id="70" value="Update balance" style="text;strokeColor=none;align=center;fillColor=none;html=1;verticalAlign=middle;whiteSpace=wrap;rounded=0;" parent="1" vertex="1">
                    <mxGeometry x="320" y="480" width="60" height="30" as="geometry"/>
                </mxCell>
                <mxCell id="71" value="" style="html=1;shadow=0;dashed=0;align=center;verticalAlign=middle;shape=mxgraph.arrows2.bendArrow;dy=15;dx=38;notch=0;arrowHead=55;rounded=1;direction=west;" parent="1" vertex="1">
                    <mxGeometry x="480" y="490" width="130" height="50" as="geometry"/>
                </mxCell>
                <mxCell id="72" value="" style="endArrow=none;dashed=1;html=1;" parent="1" edge="1">
                    <mxGeometry width="50" height="50" relative="1" as="geometry">
                        <mxPoint x="280" y="520" as="sourcePoint"/>
                        <mxPoint x="410" y="520" as="targetPoint"/>
                        <Array as="points">
                            <mxPoint x="320" y="520"/>
                        </Array>
                    </mxGeometry>
                </mxCell>
                <mxCell id="73" value="updating" style="text;strokeColor=none;align=center;fillColor=none;html=1;verticalAlign=middle;whiteSpace=wrap;rounded=0;" parent="1" vertex="1">
                    <mxGeometry x="515" y="500" width="60" height="30" as="geometry"/>
                </mxCell>
                <mxCell id="74" value="verify" style="text;strokeColor=none;align=center;fillColor=none;html=1;verticalAlign=middle;whiteSpace=wrap;rounded=0;" parent="1" vertex="1">
                    <mxGeometry x="515" y="410" width="60" height="30" as="geometry"/>
                </mxCell>
                <mxCell id="75" value="updated message" style="text;strokeColor=none;align=center;fillColor=none;html=1;verticalAlign=middle;whiteSpace=wrap;rounded=0;" parent="1" vertex="1">
                    <mxGeometry x="290" y="520" width="110" height="30" as="geometry"/>
                </mxCell>
                <mxCell id="76" value="" style="endArrow=none;dashed=1;html=1;" parent="1" edge="1">
                    <mxGeometry width="50" height="50" relative="1" as="geometry">
                        <mxPoint x="105" y="520" as="sourcePoint"/>
                        <mxPoint x="215" y="520" as="targetPoint"/>
                        <Array as="points">
                            <mxPoint x="145" y="520"/>
                        </Array>
                    </mxGeometry>
                </mxCell>
                <mxCell id="77" value="updated/receipt" style="text;strokeColor=none;align=center;fillColor=none;html=1;verticalAlign=middle;whiteSpace=wrap;rounded=0;" parent="1" vertex="1">
                    <mxGeometry x="130" y="520" width="60" height="30" as="geometry"/>
                </mxCell>
                <mxCell id="78" value="verify" style="text;strokeColor=none;align=center;fillColor=none;html=1;verticalAlign=middle;whiteSpace=wrap;rounded=0;" parent="1" vertex="1">
                    <mxGeometry x="490" y="135" width="60" height="30" as="geometry"/>
                </mxCell>
                <mxCell id="79" value="Withdraw" style="text;strokeColor=none;align=center;fillColor=none;html=1;verticalAlign=middle;whiteSpace=wrap;rounded=0;" parent="1" vertex="1">
                    <mxGeometry x="40" y="570" width="60" height="30" as="geometry"/>
                </mxCell>
                <mxCell id="80" value="" style="whiteSpace=wrap;html=1;" parent="1" vertex="1">
                    <mxGeometry x="40" y="640" width="50" height="180" as="geometry"/>
                </mxCell>
                <mxCell id="81" value="" style="whiteSpace=wrap;html=1;" parent="1" vertex="1">
                    <mxGeometry x="410" y="640" width="50" height="180" as="geometry"/>
                </mxCell>
                <mxCell id="82" value="" style="whiteSpace=wrap;html=1;" parent="1" vertex="1">
                    <mxGeometry x="240" y="640" width="50" height="180" as="geometry"/>
                </mxCell>
                <mxCell id="84" value="Customer" style="text;strokeColor=none;align=center;fillColor=none;html=1;verticalAlign=middle;whiteSpace=wrap;rounded=0;" parent="1" vertex="1">
                    <mxGeometry x="35" y="610" width="60" height="30" as="geometry"/>
                </mxCell>
                <mxCell id="85" value="Bank" style="text;strokeColor=none;align=center;fillColor=none;html=1;verticalAlign=middle;whiteSpace=wrap;rounded=0;" parent="1" vertex="1">
                    <mxGeometry x="230" y="610" width="60" height="30" as="geometry"/>
                </mxCell>
                <mxCell id="86" value="Database" style="text;strokeColor=none;align=center;fillColor=none;html=1;verticalAlign=middle;whiteSpace=wrap;rounded=0;" parent="1" vertex="1">
                    <mxGeometry x="410" y="610" width="60" height="30" as="geometry"/>
                </mxCell>
                <mxCell id="88" value="" style="endArrow=classic;html=1;" parent="1" edge="1">
                    <mxGeometry width="50" height="50" relative="1" as="geometry">
                        <mxPoint x="95" y="654" as="sourcePoint"/>
                        <mxPoint x="225" y="654" as="targetPoint"/>
                        <Array as="points">
                            <mxPoint x="165" y="654"/>
                        </Array>
                    </mxGeometry>
                </mxCell>
                <mxCell id="89" value="" style="endArrow=classic;html=1;" parent="1" edge="1">
                    <mxGeometry width="50" height="50" relative="1" as="geometry">
                        <mxPoint x="95" y="687" as="sourcePoint"/>
                        <mxPoint x="225" y="687" as="targetPoint"/>
                        <Array as="points"/>
                    </mxGeometry>
                </mxCell>
                <mxCell id="90" value="" style="endArrow=classic;html=1;" parent="1" edge="1">
                    <mxGeometry width="50" height="50" relative="1" as="geometry">
                        <mxPoint x="100" y="719" as="sourcePoint"/>
                        <mxPoint x="230" y="719" as="targetPoint"/>
                        <Array as="points"/>
                    </mxGeometry>
                </mxCell>
                <mxCell id="91" value="login" style="text;strokeColor=none;align=center;fillColor=none;html=1;verticalAlign=middle;whiteSpace=wrap;rounded=0;" parent="1" vertex="1">
                    <mxGeometry x="130" y="630" width="60" height="30" as="geometry"/>
                </mxCell>
                <mxCell id="92" value="password" style="text;strokeColor=none;align=center;fillColor=none;html=1;verticalAlign=middle;whiteSpace=wrap;rounded=0;" parent="1" vertex="1">
                    <mxGeometry x="140" y="662" width="60" height="30" as="geometry"/>
                </mxCell>
                <mxCell id="94" value="submit" style="text;strokeColor=none;align=center;fillColor=none;html=1;verticalAlign=middle;whiteSpace=wrap;rounded=0;" parent="1" vertex="1">
                    <mxGeometry x="140" y="700" width="60" height="30" as="geometry"/>
                </mxCell>
                <mxCell id="97" value="" style="endArrow=classic;html=1;" parent="1" edge="1">
                    <mxGeometry width="50" height="50" relative="1" as="geometry">
                        <mxPoint x="295" y="720" as="sourcePoint"/>
                        <mxPoint x="410" y="720" as="targetPoint"/>
                        <Array as="points">
                            <mxPoint x="350" y="720"/>
                        </Array>
                    </mxGeometry>
                </mxCell>
                <mxCell id="98" value="verify" style="text;strokeColor=none;align=center;fillColor=none;html=1;verticalAlign=middle;whiteSpace=wrap;rounded=0;" parent="1" vertex="1">
                    <mxGeometry x="320" y="692" width="60" height="30" as="geometry"/>
                </mxCell>
                <mxCell id="100" value="verified" style="html=1;shadow=0;dashed=0;align=center;verticalAlign=middle;shape=mxgraph.arrows2.bendArrow;dy=15;dx=38;notch=0;arrowHead=55;rounded=1;direction=west;" parent="1" vertex="1">
                    <mxGeometry x="475" y="730" width="130" height="50" as="geometry"/>
                </mxCell>
                <mxCell id="101" value="updated message" style="text;strokeColor=none;align=center;fillColor=none;html=1;verticalAlign=middle;whiteSpace=wrap;rounded=0;" parent="1" vertex="1">
                    <mxGeometry x="300" y="530" width="110" height="30" as="geometry"/>
                </mxCell>
                <mxCell id="104" value="check balance" style="text;strokeColor=none;align=center;fillColor=none;html=1;verticalAlign=middle;whiteSpace=wrap;rounded=0;" parent="1" vertex="1">
                    <mxGeometry x="315" y="740" width="80" height="30" as="geometry"/>
                </mxCell>
                <mxCell id="105" value="insufficient balance" style="text;strokeColor=none;align=center;fillColor=none;html=1;verticalAlign=middle;whiteSpace=wrap;rounded=0;" parent="1" vertex="1">
                    <mxGeometry x="320" y="770" width="60" height="30" as="geometry"/>
                </mxCell>
                <mxCell id="106" value="" style="endArrow=none;dashed=1;html=1;" parent="1" edge="1">
                    <mxGeometry width="50" height="50" relative="1" as="geometry">
                        <mxPoint x="105" y="770" as="sourcePoint"/>
                        <mxPoint x="230" y="770" as="targetPoint"/>
                        <Array as="points">
                            <mxPoint x="145" y="770"/>
                        </Array>
                    </mxGeometry>
                </mxCell>
                <mxCell id="107" value="withdraw 500 message" style="text;strokeColor=none;align=center;fillColor=none;html=1;verticalAlign=middle;whiteSpace=wrap;rounded=0;" parent="1" vertex="1">
                    <mxGeometry x="110" y="740" width="120" height="30" as="geometry"/>
                </mxCell>
                <mxCell id="108" value="succesful/receipt" style="text;strokeColor=none;align=center;fillColor=none;html=1;verticalAlign=middle;whiteSpace=wrap;rounded=0;" parent="1" vertex="1">
                    <mxGeometry x="115" y="780" width="110" height="30" as="geometry"/>
                </mxCell>
                <mxCell id="109" value="Account Creation" style="text;strokeColor=none;align=center;fillColor=none;html=1;verticalAlign=middle;whiteSpace=wrap;rounded=0;" parent="1" vertex="1">
                    <mxGeometry x="41" width="110" height="30" as="geometry"/>
                </mxCell>
                <mxCell id="110" value="Transfer" style="text;strokeColor=none;align=center;fillColor=none;html=1;verticalAlign=middle;whiteSpace=wrap;rounded=0;" parent="1" vertex="1">
                    <mxGeometry x="30" y="830" width="60" height="30" as="geometry"/>
                </mxCell>
                <mxCell id="111" value="" style="whiteSpace=wrap;html=1;" parent="1" vertex="1">
                    <mxGeometry x="41" y="880" width="50" height="180" as="geometry"/>
                </mxCell>
                <mxCell id="112" value="" style="whiteSpace=wrap;html=1;" parent="1" vertex="1">
                    <mxGeometry x="235" y="880" width="50" height="180" as="geometry"/>
                </mxCell>
                <mxCell id="113" value="" style="whiteSpace=wrap;html=1;" parent="1" vertex="1">
                    <mxGeometry x="420" y="880" width="50" height="180" as="geometry"/>
                </mxCell>
                <mxCell id="114" value="Customer" style="text;strokeColor=none;align=center;fillColor=none;html=1;verticalAlign=middle;whiteSpace=wrap;rounded=0;" parent="1" vertex="1">
                    <mxGeometry x="35" y="860" width="60" height="30" as="geometry"/>
                </mxCell>
                <mxCell id="116" value="Bank" style="text;strokeColor=none;align=center;fillColor=none;html=1;verticalAlign=middle;whiteSpace=wrap;rounded=0;" parent="1" vertex="1">
                    <mxGeometry x="225" y="860" width="60" height="30" as="geometry"/>
                </mxCell>
                <mxCell id="117" value="Database" style="text;strokeColor=none;align=center;fillColor=none;html=1;verticalAlign=middle;whiteSpace=wrap;rounded=0;" parent="1" vertex="1">
                    <mxGeometry x="420" y="860" width="60" height="30" as="geometry"/>
                </mxCell>
                <mxCell id="118" value="" style="endArrow=classic;html=1;" parent="1" edge="1">
                    <mxGeometry width="50" height="50" relative="1" as="geometry">
                        <mxPoint x="95" y="917" as="sourcePoint"/>
                        <mxPoint x="225" y="917" as="targetPoint"/>
                        <Array as="points"/>
                    </mxGeometry>
                </mxCell>
                <mxCell id="119" value="transfer" style="text;strokeColor=none;align=center;fillColor=none;html=1;verticalAlign=middle;whiteSpace=wrap;rounded=0;" parent="1" vertex="1">
                    <mxGeometry x="130" y="890" width="60" height="30" as="geometry"/>
                </mxCell>
                <mxCell id="122" value="" style="endArrow=classic;html=1;" parent="1" edge="1">
                    <mxGeometry width="50" height="50" relative="1" as="geometry">
                        <mxPoint x="285" y="917" as="sourcePoint"/>
                        <mxPoint x="415" y="917" as="targetPoint"/>
                        <Array as="points"/>
                    </mxGeometry>
                </mxCell>
                <mxCell id="123" value="other bank&lt;br&gt;enter account details" style="text;strokeColor=none;align=center;fillColor=none;html=1;verticalAlign=middle;whiteSpace=wrap;rounded=0;" parent="1" vertex="1">
                    <mxGeometry x="330" y="900" width="60" height="30" as="geometry"/>
                </mxCell>
                <mxCell id="124" value="verified" style="html=1;shadow=0;dashed=0;align=center;verticalAlign=middle;shape=mxgraph.arrows2.bendArrow;dy=15;dx=38;notch=0;arrowHead=55;rounded=1;direction=west;" parent="1" vertex="1">
                    <mxGeometry x="490" y="930" width="130" height="50" as="geometry"/>
                </mxCell>
                <mxCell id="125" value="" style="endArrow=none;dashed=1;html=1;" parent="1" edge="1">
                    <mxGeometry width="50" height="50" relative="1" as="geometry">
                        <mxPoint x="300" y="775.5" as="sourcePoint"/>
                        <mxPoint x="415" y="776" as="targetPoint"/>
                        <Array as="points">
                            <mxPoint x="340" y="775.5"/>
                        </Array>
                    </mxGeometry>
                </mxCell>
                <mxCell id="126" value="verify" style="text;strokeColor=none;align=center;fillColor=none;html=1;verticalAlign=middle;whiteSpace=wrap;rounded=0;" parent="1" vertex="1">
                    <mxGeometry x="330" y="940" width="60" height="30" as="geometry"/>
                </mxCell>
                <mxCell id="127" value="account match/invalid accout" style="text;strokeColor=none;align=center;fillColor=none;html=1;verticalAlign=middle;whiteSpace=wrap;rounded=0;" parent="1" vertex="1">
                    <mxGeometry x="300" y="979" width="110" height="30" as="geometry"/>
                </mxCell>
                <mxCell id="128" value="" style="endArrow=none;dashed=1;html=1;" parent="1" edge="1">
                    <mxGeometry width="50" height="50" relative="1" as="geometry">
                        <mxPoint x="295" y="1024" as="sourcePoint"/>
                        <mxPoint x="410" y="1024.5" as="targetPoint"/>
                        <Array as="points">
                            <mxPoint x="335" y="1024"/>
                        </Array>
                    </mxGeometry>
                </mxCell>
                <mxCell id="129" value="" style="endArrow=none;dashed=1;html=1;" parent="1" edge="1">
                    <mxGeometry width="50" height="50" relative="1" as="geometry">
                        <mxPoint x="294" y="971.5" as="sourcePoint"/>
                        <mxPoint x="409" y="972" as="targetPoint"/>
                        <Array as="points">
                            <mxPoint x="334" y="971.5"/>
                        </Array>
                    </mxGeometry>
                </mxCell>
                <mxCell id="130" value="transfer 5000" style="text;strokeColor=none;align=center;fillColor=none;html=1;verticalAlign=middle;whiteSpace=wrap;rounded=0;" parent="1" vertex="1">
                    <mxGeometry x="340" y="1030" width="60" height="30" as="geometry"/>
                </mxCell>
                <mxCell id="131" value="" style="endArrow=none;dashed=1;html=1;" parent="1" edge="1">
                    <mxGeometry width="50" height="50" relative="1" as="geometry">
                        <mxPoint x="112.5" y="1020" as="sourcePoint"/>
                        <mxPoint x="227.5" y="1020.5" as="targetPoint"/>
                        <Array as="points">
                            <mxPoint x="152.5" y="1020"/>
                        </Array>
                    </mxGeometry>
                </mxCell>
                <mxCell id="132" value="succesful/ receipt" style="text;strokeColor=none;align=center;fillColor=none;html=1;verticalAlign=middle;whiteSpace=wrap;rounded=0;" parent="1" vertex="1">
                    <mxGeometry x="120" y="990" width="100" height="30" as="geometry"/>
                </mxCell>
                <mxCell id="133" value="insufficient balance" style="text;strokeColor=none;align=center;fillColor=none;html=1;verticalAlign=middle;whiteSpace=wrap;rounded=0;" parent="1" vertex="1">
                    <mxGeometry x="110" y="1030" width="120" height="30" as="geometry"/>
                </mxCell>
            </root>
        </mxGraphModel>
    </diagram>
    <diagram id="PtFV8O2C5HYoAs5MGpdY" name="Page-2">
        <mxGraphModel dx="740" dy="389" grid="1" gridSize="10" guides="1" tooltips="1" connect="1" arrows="1" fold="1" page="1" pageScale="1" pageWidth="850" pageHeight="1100" math="0" shadow="0">
            <root>
                <mxCell id="0"/>
                <mxCell id="1" parent="0"/>
                <mxCell id="hf1Z2MpnUCUfy5ouZsow-1" value="Class Diagram" style="text;strokeColor=none;align=center;fillColor=none;html=1;verticalAlign=middle;whiteSpace=wrap;rounded=0;" parent="1" vertex="1">
                    <mxGeometry x="330" width="130" height="30" as="geometry"/>
                </mxCell>
                <mxCell id="hf1Z2MpnUCUfy5ouZsow-2" value="Customer" style="text;strokeColor=none;align=center;fillColor=none;html=1;verticalAlign=middle;whiteSpace=wrap;rounded=0;" parent="1" vertex="1">
                    <mxGeometry x="40" y="10" width="60" height="30" as="geometry"/>
                </mxCell>
                <mxCell id="w1_m1YZKG5cEuPa-3iM_-1" value="Admin&lt;br&gt;name:stringe&lt;br&gt;age&lt;br&gt;username&lt;br&gt;passowrd&lt;br&gt;&lt;br&gt;" style="whiteSpace=wrap;html=1;" parent="1" vertex="1">
                    <mxGeometry x="40" y="40" width="120" height="200" as="geometry"/>
                </mxCell>
                <mxCell id="w1_m1YZKG5cEuPa-3iM_-2" value="create accout&lt;br&gt;Update account" style="text;strokeColor=none;align=center;fillColor=none;html=1;verticalAlign=middle;whiteSpace=wrap;rounded=0;" parent="1" vertex="1">
                    <mxGeometry x="70" y="190" width="60" height="20" as="geometry"/>
                </mxCell>
                <mxCell id="w1_m1YZKG5cEuPa-3iM_-4" value="Withdraw" style="text;strokeColor=none;align=center;fillColor=none;html=1;verticalAlign=middle;whiteSpace=wrap;rounded=0;" parent="1" vertex="1">
                    <mxGeometry x="250" y="10" width="60" height="30" as="geometry"/>
                </mxCell>
                <mxCell id="w1_m1YZKG5cEuPa-3iM_-5" value="3D&lt;br&gt;amount&lt;br&gt;date&lt;br&gt;" style="whiteSpace=wrap;html=1;" parent="1" vertex="1">
                    <mxGeometry x="210" y="40" width="120" height="200" as="geometry"/>
                </mxCell>
                <mxCell id="aXUnfA4Xkw50_AsxdiSi-1" value="" style="endArrow=none;html=1;" parent="1" edge="1">
                    <mxGeometry width="50" height="50" relative="1" as="geometry">
                        <mxPoint x="215" y="170" as="sourcePoint"/>
                        <mxPoint x="325" y="170" as="targetPoint"/>
                        <Array as="points">
                            <mxPoint x="220" y="170"/>
                        </Array>
                    </mxGeometry>
                </mxCell>
                <mxCell id="aXUnfA4Xkw50_AsxdiSi-2" value="" style="endArrow=none;html=1;" parent="1" edge="1">
                    <mxGeometry width="50" height="50" relative="1" as="geometry">
                        <mxPoint x="45" y="170" as="sourcePoint"/>
                        <mxPoint x="155" y="170" as="targetPoint"/>
                        <Array as="points">
                            <mxPoint x="50" y="170"/>
                        </Array>
                    </mxGeometry>
                </mxCell>
                <mxCell id="aXUnfA4Xkw50_AsxdiSi-3" value="update" style="text;strokeColor=none;align=center;fillColor=none;html=1;verticalAlign=middle;whiteSpace=wrap;rounded=0;" parent="1" vertex="1">
                    <mxGeometry x="240" y="170" width="60" height="30" as="geometry"/>
                </mxCell>
                <mxCell id="aXUnfA4Xkw50_AsxdiSi-5" value="Debit Updated" style="whiteSpace=wrap;html=1;" parent="1" vertex="1">
                    <mxGeometry x="40" y="320" width="120" height="200" as="geometry"/>
                </mxCell>
                <mxCell id="aXUnfA4Xkw50_AsxdiSi-6" value="Debit&lt;br&gt;Information" style="text;strokeColor=none;align=center;fillColor=none;html=1;verticalAlign=middle;whiteSpace=wrap;rounded=0;" parent="1" vertex="1">
                    <mxGeometry x="70" y="340" width="60" height="30" as="geometry"/>
                </mxCell>
                <mxCell id="aXUnfA4Xkw50_AsxdiSi-8" value="" style="endArrow=none;html=1;" parent="1" edge="1">
                    <mxGeometry width="50" height="50" relative="1" as="geometry">
                        <mxPoint x="45" y="394" as="sourcePoint"/>
                        <mxPoint x="155" y="394" as="targetPoint"/>
                        <Array as="points">
                            <mxPoint x="50" y="394"/>
                        </Array>
                    </mxGeometry>
                </mxCell>
                <mxCell id="aXUnfA4Xkw50_AsxdiSi-9" value="Credit update" style="whiteSpace=wrap;html=1;" parent="1" vertex="1">
                    <mxGeometry x="210" y="320" width="120" height="200" as="geometry"/>
                </mxCell>
                <mxCell id="aXUnfA4Xkw50_AsxdiSi-12" value="Credit&lt;br&gt;Information&lt;br&gt;amount&lt;br&gt;date" style="text;strokeColor=none;align=center;fillColor=none;html=1;verticalAlign=middle;whiteSpace=wrap;rounded=0;" parent="1" vertex="1">
                    <mxGeometry x="230" y="350" width="60" height="30" as="geometry"/>
                </mxCell>
                <mxCell id="aXUnfA4Xkw50_AsxdiSi-13" value="" style="endArrow=none;html=1;" parent="1" edge="1">
                    <mxGeometry width="50" height="50" relative="1" as="geometry">
                        <mxPoint x="215" y="401" as="sourcePoint"/>
                        <mxPoint x="325" y="401" as="targetPoint"/>
                        <Array as="points">
                            <mxPoint x="220" y="401"/>
                        </Array>
                    </mxGeometry>
                </mxCell>
                <mxCell id="aXUnfA4Xkw50_AsxdiSi-14" value="" style="endArrow=none;html=1;" parent="1" edge="1">
                    <mxGeometry width="50" height="50" relative="1" as="geometry">
                        <mxPoint x="42" y="111" as="sourcePoint"/>
                        <mxPoint x="152" y="111" as="targetPoint"/>
                        <Array as="points">
                            <mxPoint x="47" y="111"/>
                        </Array>
                    </mxGeometry>
                </mxCell>
                <mxCell id="aXUnfA4Xkw50_AsxdiSi-15" value="" style="endArrow=none;html=1;" parent="1" edge="1">
                    <mxGeometry width="50" height="50" relative="1" as="geometry">
                        <mxPoint x="215" y="349" as="sourcePoint"/>
                        <mxPoint x="325" y="349" as="targetPoint"/>
                        <Array as="points">
                            <mxPoint x="220" y="349"/>
                        </Array>
                    </mxGeometry>
                </mxCell>
                <mxCell id="aXUnfA4Xkw50_AsxdiSi-16" value="" style="endArrow=none;html=1;" parent="1" edge="1">
                    <mxGeometry width="50" height="50" relative="1" as="geometry">
                        <mxPoint x="47" y="355" as="sourcePoint"/>
                        <mxPoint x="157" y="355" as="targetPoint"/>
                        <Array as="points">
                            <mxPoint x="52" y="355"/>
                        </Array>
                    </mxGeometry>
                </mxCell>
                <mxCell id="aXUnfA4Xkw50_AsxdiSi-17" value="" style="whiteSpace=wrap;html=1;" parent="1" vertex="1">
                    <mxGeometry x="440" y="320" width="120" height="200" as="geometry"/>
                </mxCell>
                <mxCell id="aXUnfA4Xkw50_AsxdiSi-18" value="Transactions" style="text;strokeColor=none;align=center;fillColor=none;html=1;verticalAlign=middle;whiteSpace=wrap;rounded=0;" parent="1" vertex="1">
                    <mxGeometry x="470" y="320" width="60" height="30" as="geometry"/>
                </mxCell>
                <mxCell id="aXUnfA4Xkw50_AsxdiSi-19" value="" style="endArrow=none;html=1;" parent="1" edge="1">
                    <mxGeometry width="50" height="50" relative="1" as="geometry">
                        <mxPoint x="445" y="350" as="sourcePoint"/>
                        <mxPoint x="555" y="350" as="targetPoint"/>
                        <Array as="points">
                            <mxPoint x="450" y="350"/>
                        </Array>
                    </mxGeometry>
                </mxCell>
                <mxCell id="aXUnfA4Xkw50_AsxdiSi-21" value="I.D&lt;br&gt;Details&lt;br&gt;Date" style="text;strokeColor=none;align=center;fillColor=none;html=1;verticalAlign=middle;whiteSpace=wrap;rounded=0;" parent="1" vertex="1">
                    <mxGeometry x="460" y="370" width="80" height="40" as="geometry"/>
                </mxCell>
                <mxCell id="aXUnfA4Xkw50_AsxdiSi-22" value="" style="endArrow=none;html=1;" parent="1" edge="1">
                    <mxGeometry width="50" height="50" relative="1" as="geometry">
                        <mxPoint x="444" y="428" as="sourcePoint"/>
                        <mxPoint x="554" y="428" as="targetPoint"/>
                        <Array as="points">
                            <mxPoint x="449" y="428"/>
                        </Array>
                    </mxGeometry>
                </mxCell>
                <mxCell id="aXUnfA4Xkw50_AsxdiSi-23" value="update" style="text;strokeColor=none;align=center;fillColor=none;html=1;verticalAlign=middle;whiteSpace=wrap;rounded=0;" parent="1" vertex="1">
                    <mxGeometry x="470" y="450" width="60" height="30" as="geometry"/>
                </mxCell>
            </root>
        </mxGraphModel>
    </diagram>
</mxfile>